<?xml version="1.0" encoding="UTF-8" standalone="no"?>
<svg width="23px" height="23px" viewBox="0 0 23 23" version="1.1" xmlns="http://www.w3.org/2000/svg" xmlns:xlink="http://www.w3.org/1999/xlink" xmlns:sketch="http://www.bohemiancoding.com/sketch/ns">
    <!-- Generator: Sketch 3.4.2 (15857) - http://www.bohemiancoding.com/sketch -->
    <title>Rectangle 627 Copy</title>
    <desc>Created with Sketch.</desc>
    <defs></defs>
    <g id="Page-1" stroke="none" stroke-width="1" fill="none" fill-rule="evenodd" sketch:type="MSPage">
        <g id="SIDEBAR" sketch:type="MSArtboardGroup" transform="translate(-168.000000, -1223.000000)" fill="#CECECE">
            <g id="ESTADOS" sketch:type="MSLayerGroup" transform="translate(127.000000, 907.000000)">
                <g id="Rectangle-627-Copy-+-Line-+-Line-Copy-2-Copy-Copy" transform="translate(6.000000, 281.000000)" sketch:type="MSShapeGroup">
                    <path d="M46,46 L46,42.5 L46,42 L47,42 L47,42.5 L47,46 L50.5,46 L51,46 L51,47 L50.5,47 L47,47 L47,50.5 L47,51 L46,51 L46,50.5 L46,47 L42.5,47 L42,47 L42,46 L42.5,46 L46,46 Z M35,46.5 C35,40.1487254 40.1473289,35 46.5,35 C52.8512746,35 58,40.1473289 58,46.5 C58,52.8512746 52.8526711,58 46.5,58 C40.1487254,58 35,52.8526711 35,46.5 Z" id="Rectangle-627-Copy"></path>
                </g>
            </g>
        </g>
    </g>
</svg>