<?xml version="1.0" encoding="UTF-8" standalone="no"?>
<svg width="34px" height="34px" viewBox="0 0 34 34" version="1.1" xmlns="http://www.w3.org/2000/svg" xmlns:xlink="http://www.w3.org/1999/xlink" xmlns:sketch="http://www.bohemiancoding.com/sketch/ns">
    <!-- Generator: Sketch 3.4.2 (15857) - http://www.bohemiancoding.com/sketch -->
    <title>Oval 131</title>
    <desc>Created with Sketch.</desc>
    <defs></defs>
    <g id="Page-1" stroke="none" stroke-width="1" fill="none" fill-rule="evenodd" sketch:type="MSPage">
        <g id="SIDEBAR" sketch:type="MSArtboardGroup" transform="translate(-296.000000, -13.000000)" fill="#979797">
            <g id="DASHBOARD" sketch:type="MSLayerGroup" transform="translate(88.000000, 13.000000)">
                <g id="Rectangle-627-Copy-+-Line-Copy-6-+-Line-Copy-12-+-Line-Copy-6-+-Line" transform="translate(164.000000, 0.000000)" sketch:type="MSShapeGroup">
                    <path d="M62,16 L66,16 L67,16 L67,18 L66,18 L62,18 L62,22 L62,23 L60,23 L60,22 L60,18 L56,18 L55,18 L55,16 L56,16 L60,16 L60,12 L60,11 L62,11 L62,12 L62,16 Z M61,34 C70.3888407,34 78,26.3888407 78,17 C78,7.61115925 70.3888407,0 61,0 C51.6111593,0 44,7.61115925 44,17 C44,26.3888407 51.6111593,34 61,34 Z" id="Oval-131"></path>
                </g>
            </g>
        </g>
    </g>
</svg>