<?xml version="1.0" encoding="UTF-8" standalone="no"?>
<svg width="23px" height="23px" viewBox="0 0 23 23" version="1.1" xmlns="http://www.w3.org/2000/svg" xmlns:xlink="http://www.w3.org/1999/xlink" xmlns:sketch="http://www.bohemiancoding.com/sketch/ns">
    <!-- Generator: Sketch 3.4.2 (15857) - http://www.bohemiancoding.com/sketch -->
    <title>Rectangle 627 Copy + Line + Line Copy 2 Copy Copy Copy</title>
    <desc>Created with Sketch.</desc>
    <defs></defs>
    <g id="Page-1" stroke="none" stroke-width="1" fill="none" fill-rule="evenodd" sketch:type="MSPage">
        <g id="SIDEBAR" sketch:type="MSArtboardGroup" transform="translate(-209.000000, -1223.000000)" fill="#FCFCFC">
            <g id="ESTADOS" sketch:type="MSLayerGroup" transform="translate(127.000000, 907.000000)">
                <g id="Rectangle-627-Copy-+-Line-+-Line-Copy-2-Copy-Copy-Copy" transform="translate(82.000000, 316.000000)" sketch:type="MSShapeGroup">
                    <path d="M11,11 L11,7.5 L11,7 L12,7 L12,7.5 L12,11 L15.5,11 L16,11 L16,12 L15.5,12 L12,12 L12,15.5 L12,16 L11,16 L11,15.5 L11,12 L7.5,12 L7,12 L7,11 L7.5,11 L11,11 Z M0,11.5 C0,5.14872538 5.14732891,0 11.5,0 C17.8512746,0 23,5.14732891 23,11.5 C23,17.8512746 17.8526711,23 11.5,23 C5.14872538,23 0,17.8526711 0,11.5 Z" id="Rectangle-627-Copy"></path>
                </g>
            </g>
        </g>
    </g>
</svg>