<?xml version="1.0" encoding="UTF-8" standalone="no"?>
<svg width="22px" height="87px" viewBox="0 0 22 87" version="1.1" xmlns="http://www.w3.org/2000/svg" xmlns:xlink="http://www.w3.org/1999/xlink" xmlns:sketch="http://www.bohemiancoding.com/sketch/ns">
    <!-- Generator: Sketch 3.3.2 (12043) - http://www.bohemiancoding.com/sketch -->
    <title>Line + Shape Copy 11 + Rectangle 6 Copy</title>
    <desc>Created with Sketch.</desc>
    <defs></defs>
    <g id="Page-1" stroke="none" stroke-width="1" fill="none" fill-rule="evenodd" sketch:type="MSPage">
        <g id="SIDEBAR-MENÚ" sketch:type="MSArtboardGroup" transform="translate(-523.000000, -357.000000)">
            <g id="CONTENIDO-Copy" sketch:type="MSLayerGroup" transform="translate(522.000000, 90.000000)">
                <g id="OPENED-FOLDER" transform="translate(1.000000, 267.000000)" sketch:type="MSShapeGroup">
                    <g id="Line-+-Shape-Copy-11-+-Rectangle-6-Copy">
                        <path d="M10,16.5 L10,85.519043" id="Line" stroke="#C2C2C2" stroke-linecap="square"></path>
                        <path d="M2,0 C0.9,0 0,0.9 0,2 L0,14 C0,15.1 0.9,16 2,16 L18,16 C19.1,16 20,15.1 20,14 L20,4 C20,2.9 19.1,2 18,2 L10,2 L8,0 L2,0 Z" id="Shape-Copy-11" fill="#0BB9DC"></path>
                        <path d="M1.30798323,6.26418716 C1.4782367,5.17452919 2.5064337,4.29118687 3.61829053,4.29118687 L19.7271479,4.29118687 C20.8328419,4.29118687 21.6141286,5.17125089 21.4695122,6.27742741 L20.4581004,14.0137595 C20.3146877,15.1107298 19.2950298,16 18.2041125,16 L1.78112858,16.0000001 C0.679698157,16.0000001 -0.0756821242,15.1199361 0.0950835628,14.0269998 L1.30798323,6.26418716 Z" id="Rectangle-6-Copy" fill="#363A3D"></path>
                    </g>
                </g>
            </g>
        </g>
    </g>
</svg>