<?xml version="1.0" encoding="UTF-8" standalone="no"?>
<svg width="23px" height="22px" viewBox="0 0 23 22" version="1.1" xmlns="http://www.w3.org/2000/svg" xmlns:xlink="http://www.w3.org/1999/xlink" xmlns:sketch="http://www.bohemiancoding.com/sketch/ns">
    <!-- Generator: Sketch 3.3.2 (12043) - http://www.bohemiancoding.com/sketch -->
    <title>icon domain</title>
    <desc>Created with Sketch.</desc>
    <defs></defs>
    <g id="Page-1" stroke="none" stroke-width="1" fill="none" fill-rule="evenodd" sketch:type="MSPage">
        <g id="structure" sketch:type="MSArtboardGroup" transform="translate(-31.000000, -180.000000)" fill="#EFEFEF">
            <g id="MENÚ-SIDEBAR" sketch:type="MSLayerGroup" transform="translate(0.000000, -10.000000)">
                <g id="icon-domain" transform="translate(31.800000, 190.000000)" sketch:type="MSShapeGroup">
                    <rect id="Rectangle-602-Copy" x="5" y="5" width="12" height="12"></rect>
                    <rect id="Rectangle-603-Copy-16" x="4" y="0" width="2" height="2"></rect>
                    <rect id="Rectangle-603-Copy-32" x="0" y="0" width="2" height="2"></rect>
                    <rect id="Rectangle-603-Copy-33" x="0" y="20" width="2" height="2"></rect>
                    <rect id="Rectangle-603-Copy-34" x="20" y="20" width="2" height="2"></rect>
                    <rect id="Rectangle-603-Copy-35" x="20" y="0" width="2" height="2"></rect>
                    <rect id="Rectangle-603-Copy-17" x="8" y="0" width="2" height="2"></rect>
                    <rect id="Rectangle-603-Copy-18" x="12" y="0" width="2" height="2"></rect>
                    <rect id="Rectangle-603-Copy-19" x="16" y="0" width="2" height="2"></rect>
                    <rect id="Rectangle-603-Copy-20" x="4" y="20" width="2" height="2"></rect>
                    <rect id="Rectangle-603-Copy-21" x="8" y="20" width="2" height="2"></rect>
                    <rect id="Rectangle-603-Copy-22" x="12" y="20" width="2" height="2"></rect>
                    <rect id="Rectangle-603-Copy-23" x="16" y="20" width="2" height="2"></rect>
                    <rect id="Rectangle-603-Copy-24" x="20" y="16" width="2" height="2"></rect>
                    <rect id="Rectangle-603-Copy-25" x="20" y="12" width="2" height="2"></rect>
                    <rect id="Rectangle-603-Copy-26" x="20" y="8" width="2" height="2"></rect>
                    <rect id="Rectangle-603-Copy-27" x="20" y="4" width="2" height="2"></rect>
                    <rect id="Rectangle-603-Copy-28" x="0" y="16" width="2" height="2"></rect>
                    <rect id="Rectangle-603-Copy-29" x="0" y="12" width="2" height="2"></rect>
                    <rect id="Rectangle-603-Copy-30" x="0" y="8" width="2" height="2"></rect>
                    <rect id="Rectangle-603-Copy-31" x="0" y="4" width="2" height="2"></rect>
                </g>
            </g>
        </g>
    </g>
</svg>