<?xml version="1.0" encoding="UTF-8" standalone="no"?>
<svg width="19px" height="15px" viewBox="0 0 19 15" version="1.1" xmlns="http://www.w3.org/2000/svg" xmlns:xlink="http://www.w3.org/1999/xlink" xmlns:sketch="http://www.bohemiancoding.com/sketch/ns">
    <!-- Generator: Sketch 3.4.2 (15857) - http://www.bohemiancoding.com/sketch -->
    <title>Shape Copy 11 + Rectangle 6 Copy</title>
    <desc>Created with Sketch.</desc>
    <defs></defs>
    <g id="Page-1" stroke="none" stroke-width="1" fill="none" fill-rule="evenodd" sketch:type="MSPage">
        <g id="SIDEBAR" sketch:type="MSArtboardGroup" transform="translate(-222.000000, -987.000000)">
            <g id="Shape-Copy-11-+-Rectangle-6-Copy" sketch:type="MSLayerGroup" transform="translate(222.000000, 987.000000)">
                <path d="M1.77814459,0 C0.800165066,0 0,0.7875 0,1.75 L0,12.25 C0,13.2125 0.800165066,14 1.77814459,14 L16.0033013,14 C16.9812808,14 17.7814459,13.2125 17.7814459,12.25 L17.7814459,3.5 C17.7814459,2.5375 16.9812808,1.75 16.0033013,1.75 L8.89072295,1.75 L7.11257836,0 L1.77814459,0 Z" id="Shape-Copy-11" fill="#A4A4A4" sketch:type="MSShapeGroup"></path>
                <path d="M1.06024201,5.97537985 C1.23344224,4.88440768 2.26061242,4 3.37307337,4 L17.2564727,4 C18.3606139,4 19.1373025,4.89127292 18.993292,5.97537983 L18.1571504,12.2698317 C18.0122279,13.3608038 16.9948126,14.2452115 15.900744,14.2452115 L1.74134362,14.2452116 C0.640087235,14.2452116 -0.111161013,13.3539387 0.060949307,12.2698317 L1.06024201,5.97537985 Z" id="Rectangle-6-Copy" fill="#363A3D" sketch:type="MSShapeGroup"></path>
            </g>
        </g>
    </g>
</svg>